<svg width="34" height="34" viewBox="0 0 34 34" fill="none" xmlns="http://www.w3.org/2000/svg">
<path fill-rule="evenodd" clip-rule="evenodd" d="M17.0001 3.5415C12.6969 3.5415 9.20851 7.02997 9.20851 11.3332C9.20851 14.0099 10.5583 16.3714 12.6143 17.7741C7.84781 19.5202 4.4144 24.0307 4.25567 29.3641C4.23821 29.9506 4.69955 30.4402 5.28609 30.4577C5.87263 30.4752 6.36227 30.0138 6.37973 29.4273C6.54992 23.7088 11.2398 19.1248 16.9999 19.1248C22.7601 19.1248 27.4499 23.7088 27.6201 29.4273C27.6376 30.0138 28.1272 30.4752 28.7138 30.4577C29.3003 30.4402 29.7617 29.9506 29.7442 29.3641C29.5855 24.0307 26.1521 19.5203 21.3858 17.7742C23.4418 16.3715 24.7916 14.0099 24.7916 11.3332C24.7916 7.02997 21.3032 3.5415 17.0001 3.5415ZM11.3335 11.3332C11.3335 8.20354 13.8705 5.6665 17.0001 5.6665C20.1296 5.6665 22.6666 8.20354 22.6666 11.3332C22.6666 14.4628 20.1296 16.9998 17.0001 16.9998C13.8705 16.9998 11.3335 14.4628 11.3335 11.3332Z" fill="#24292E"/>
</svg>
